<svg width="80" height="81" viewBox="0 0 80 81" fill="none" xmlns="http://www.w3.org/2000/svg">
<path fill-rule="evenodd" clip-rule="evenodd" d="M79.9829 17.465C79.9756 17.347 79.9526 17.2296 79.9137 17.1182C79.9097 17.1063 79.906 17.0945 79.9023 17.0827C79.8925 17.0518 79.883 17.0216 79.8696 16.991C79.8037 16.844 79.7122 16.7102 79.5996 16.5955L63.4137 0.395508C63.2991 0.282129 63.1648 0.190503 63.0172 0.125244C62.9888 0.112177 62.96 0.102744 62.9309 0.0932028L62.9309 0.0931876L62.9309 0.0931844C62.9189 0.0892552 62.9068 0.0853073 62.8947 0.0810791C62.7801 0.0415284 62.6616 0.0177979 62.5411 0.0105469C62.5285 0.0130642 62.5155 0.00969572 62.5017 0.00611427C62.4902 0.003131 62.4782 0 62.4653 0H22.0007C18.2782 0.00461427 15.2612 3.02366 15.2566 6.75V16.6858C5.98408 20.7787 0 29.965 0 40.1084C0 50.2519 5.98408 59.4382 15.2566 63.5311V74.25C15.2612 77.9763 18.2782 80.9954 22.0007 81H73.2559C76.979 80.9954 79.996 77.9763 80 74.25V17.55C80 17.5338 79.9957 17.5188 79.9913 17.5037C79.9877 17.4911 79.9841 17.4784 79.9829 17.465ZM75.395 16.2H65.163C64.4181 16.2 63.8141 15.5955 63.8141 14.85V4.60898L75.395 16.2ZM9.43319 23.8715C5.13119 28.1773 2.71806 34.0189 2.72596 40.1084C2.72728 48.4596 7.26045 56.1516 14.5631 60.1917C21.8657 64.2324 30.7845 63.9833 37.8506 59.5417C40.7689 57.7112 43.2354 55.2432 45.0657 52.323C47.3734 48.6686 48.5945 44.432 48.5846 40.1084C48.576 38.9575 48.4818 37.8086 48.3027 36.6715C46.7576 26.2967 38.3637 18.3008 27.934 17.2692C27.1832 17.196 26.4225 17.1584 25.6559 17.1584C19.5724 17.1505 13.7352 19.5658 9.43319 23.8715ZM41.3215 60.3881C41.5059 60.2451 41.6883 60.1033 41.8688 59.9563C42.5346 59.4198 43.1722 58.8496 43.7801 58.2484C44.3807 57.64 44.9504 57.0026 45.4865 56.3368C45.6194 56.1733 45.7481 56.0071 45.8772 55.8402L45.8777 55.8396L45.9179 55.7877C45.9844 55.7007 46.0532 55.6157 46.1219 55.5306C46.222 55.4068 46.3219 55.2832 46.4145 55.1542L57.913 66.6767C58.6744 67.4314 59.1031 68.4598 59.1031 69.5322C59.1031 70.6054 58.6744 71.6331 57.913 72.3885C56.3205 73.929 53.7948 73.929 52.2023 72.3885L40.6886 60.8851C40.8192 60.79 40.9449 60.6887 41.0704 60.5875C41.1537 60.5204 41.2369 60.4533 41.3215 60.3881ZM22.0007 78.3H73.2559C75.4912 78.3 77.3024 76.4866 77.3024 74.25V18.9H65.163C62.9283 18.9 61.1165 17.0866 61.1165 14.85V2.7H21.9967C19.7621 2.7 17.9503 4.5134 17.9503 6.75V15.6318C17.9952 15.6173 18.0405 15.6054 18.0857 15.5936C18.1248 15.5834 18.1638 15.5732 18.2025 15.5613C18.3508 15.5172 18.498 15.4789 18.6448 15.4406C18.7223 15.4204 18.7996 15.4003 18.8769 15.3793C19.3761 15.2416 19.8793 15.1176 20.3864 15.0122C20.6407 14.9588 20.8962 14.91 21.1524 14.8652C21.6661 14.7755 22.1818 14.7017 22.7008 14.6437C22.7719 14.6354 22.8429 14.6266 22.9139 14.6178C23.0746 14.598 23.2353 14.5781 23.3969 14.5639C24.1444 14.5006 24.8966 14.4584 25.6559 14.4584C32.458 14.4387 38.9848 17.1433 43.7814 21.9698C47.9754 26.1523 50.5841 31.6657 51.1597 37.564C51.2427 38.4051 51.2835 39.2535 51.2835 40.1084C51.2875 44.5704 50.1198 48.9553 47.8983 52.824L59.819 64.7624C61.65 66.4387 62.4126 68.9865 61.8047 71.3944C61.1975 73.8024 59.3178 75.6817 56.9113 76.2875C54.5054 76.894 51.9606 76.128 50.2871 74.2948L38.3611 62.3703C34.4957 64.5937 30.1147 65.7617 25.6559 65.7584C24.8966 65.7584 24.1444 65.7169 23.3969 65.653C23.2427 65.6399 23.0902 65.6211 22.9374 65.6022C22.8591 65.5925 22.7808 65.5828 22.7021 65.5739C22.1818 65.5139 21.6635 65.4427 21.1498 65.3524C20.8949 65.3076 20.6426 65.2588 20.3904 65.2061C19.8767 65.1052 19.3682 64.9701 18.8637 64.8349C18.7844 64.8129 18.705 64.7919 18.6257 64.771C18.4867 64.7343 18.348 64.6976 18.2104 64.6556C18.1717 64.6439 18.1324 64.6338 18.0932 64.6238C18.0464 64.6118 17.9997 64.5998 17.9542 64.5851V74.25C17.9542 76.4866 19.766 78.3 22.0007 78.3Z" fill="url(#paint0_linear_1_251)"/>
<path fill-rule="evenodd" clip-rule="evenodd" d="M79.9829 17.465C79.9756 17.347 79.9526 17.2296 79.9137 17.1182C79.9097 17.1063 79.906 17.0945 79.9023 17.0827C79.8925 17.0518 79.883 17.0216 79.8696 16.991C79.8037 16.844 79.7122 16.7102 79.5996 16.5955L63.4137 0.395508C63.2991 0.282129 63.1648 0.190503 63.0172 0.125244C62.9888 0.112177 62.96 0.102744 62.9309 0.0932028L62.9309 0.0931876L62.9309 0.0931844C62.9189 0.0892552 62.9068 0.0853073 62.8947 0.0810791C62.7801 0.0415284 62.6616 0.0177979 62.5411 0.0105469C62.5285 0.0130642 62.5155 0.00969572 62.5017 0.00611427C62.4902 0.003131 62.4782 0 62.4653 0H22.0007C18.2782 0.00461427 15.2612 3.02366 15.2566 6.75V16.6858C5.98408 20.7787 0 29.965 0 40.1084C0 50.2519 5.98408 59.4382 15.2566 63.5311V74.25C15.2612 77.9763 18.2782 80.9954 22.0007 81H73.2559C76.979 80.9954 79.996 77.9763 80 74.25V17.55C80 17.5338 79.9957 17.5188 79.9913 17.5037C79.9877 17.4911 79.9841 17.4784 79.9829 17.465ZM75.395 16.2H65.163C64.4181 16.2 63.8141 15.5955 63.8141 14.85V4.60898L75.395 16.2ZM9.43319 23.8715C5.13119 28.1773 2.71806 34.0189 2.72596 40.1084C2.72728 48.4596 7.26045 56.1516 14.5631 60.1917C21.8657 64.2324 30.7845 63.9833 37.8506 59.5417C40.7689 57.7112 43.2354 55.2432 45.0657 52.323C47.3734 48.6686 48.5945 44.432 48.5846 40.1084C48.576 38.9575 48.4818 37.8086 48.3027 36.6715C46.7576 26.2967 38.3637 18.3008 27.934 17.2692C27.1832 17.196 26.4225 17.1584 25.6559 17.1584C19.5724 17.1505 13.7352 19.5658 9.43319 23.8715ZM41.3215 60.3881C41.5059 60.2451 41.6883 60.1033 41.8688 59.9563C42.5346 59.4198 43.1722 58.8496 43.7801 58.2484C44.3807 57.64 44.9504 57.0026 45.4865 56.3368C45.6194 56.1733 45.7481 56.0071 45.8772 55.8402L45.8777 55.8396L45.9179 55.7877C45.9844 55.7007 46.0532 55.6157 46.1219 55.5306C46.222 55.4068 46.3219 55.2832 46.4145 55.1542L57.913 66.6767C58.6744 67.4314 59.1031 68.4598 59.1031 69.5322C59.1031 70.6054 58.6744 71.6331 57.913 72.3885C56.3205 73.929 53.7948 73.929 52.2023 72.3885L40.6886 60.8851C40.8192 60.79 40.9449 60.6887 41.0704 60.5875C41.1537 60.5204 41.2369 60.4533 41.3215 60.3881ZM22.0007 78.3H73.2559C75.4912 78.3 77.3024 76.4866 77.3024 74.25V18.9H65.163C62.9283 18.9 61.1165 17.0866 61.1165 14.85V2.7H21.9967C19.7621 2.7 17.9503 4.5134 17.9503 6.75V15.6318C17.9952 15.6173 18.0405 15.6054 18.0857 15.5936C18.1248 15.5834 18.1638 15.5732 18.2025 15.5613C18.3508 15.5172 18.498 15.4789 18.6448 15.4406C18.7223 15.4204 18.7996 15.4003 18.8769 15.3793C19.3761 15.2416 19.8793 15.1176 20.3864 15.0122C20.6407 14.9588 20.8962 14.91 21.1524 14.8652C21.6661 14.7755 22.1818 14.7017 22.7008 14.6437C22.7719 14.6354 22.8429 14.6266 22.9139 14.6178C23.0746 14.598 23.2353 14.5781 23.3969 14.5639C24.1444 14.5006 24.8966 14.4584 25.6559 14.4584C32.458 14.4387 38.9848 17.1433 43.7814 21.9698C47.9754 26.1523 50.5841 31.6657 51.1597 37.564C51.2427 38.4051 51.2835 39.2535 51.2835 40.1084C51.2875 44.5704 50.1198 48.9553 47.8983 52.824L59.819 64.7624C61.65 66.4387 62.4126 68.9865 61.8047 71.3944C61.1975 73.8024 59.3178 75.6817 56.9113 76.2875C54.5054 76.894 51.9606 76.128 50.2871 74.2948L38.3611 62.3703C34.4957 64.5937 30.1147 65.7617 25.6559 65.7584C24.8966 65.7584 24.1444 65.7169 23.3969 65.653C23.2427 65.6399 23.0902 65.6211 22.9374 65.6022C22.8591 65.5925 22.7808 65.5828 22.7021 65.5739C22.1818 65.5139 21.6635 65.4427 21.1498 65.3524C20.8949 65.3076 20.6426 65.2588 20.3904 65.2061C19.8767 65.1052 19.3682 64.9701 18.8637 64.8349C18.7844 64.8129 18.705 64.7919 18.6257 64.771C18.4867 64.7343 18.348 64.6976 18.2104 64.6556C18.1717 64.6439 18.1324 64.6338 18.0932 64.6238C18.0464 64.6118 17.9997 64.5998 17.9542 64.5851V74.25C17.9542 76.4866 19.766 78.3 22.0007 78.3Z" fill="url(#paint1_linear_1_251)"/>
<defs>
<linearGradient id="paint0_linear_1_251" x1="86.7031" y1="84.3804" x2="86.7031" y2="-10.1641" gradientUnits="userSpaceOnUse">
<stop stop-color="#006DF0"/>
<stop offset="1" stop-color="#00E7F0"/>
</linearGradient>
<linearGradient id="paint1_linear_1_251" x1="97.1215" y1="95.711" x2="126.866" y2="-19.7835" gradientUnits="userSpaceOnUse">
<stop stop-color="#FBA36A"/>
<stop offset="1" stop-color="#D75400"/>
</linearGradient>
</defs>
</svg>
