<svg width="80" height="80" viewBox="0 0 80 80" fill="none" xmlns="http://www.w3.org/2000/svg">
<path fill-rule="evenodd" clip-rule="evenodd" d="M39.7259 75.6888C27.3089 77.2505 4.07521 77.2801 3.5941 58.1671C3.59437 47.8089 11.6556 33.845 22.4244 25.4479H25.4467V32.7187C25.4467 33.7226 26.262 34.5364 27.2677 34.5364C28.2734 34.5364 29.0887 33.7226 29.0887 32.7187V25.4479H32.7308V36.3542C32.7287 37.0049 33.0753 37.6072 33.6396 37.9331C34.2039 38.2591 34.8997 38.2591 35.464 37.9331C36.0282 37.6072 36.3749 37.0049 36.3728 36.3542V25.4479H39.3942C42.5241 27.9277 45.3658 30.7497 47.8663 33.861C48.4983 34.6419 49.6448 34.7635 50.4271 34.1326C51.2094 33.5018 51.3312 32.3573 50.6992 31.5765C48.184 28.4647 45.3502 25.6235 42.2438 23.0993L47.8254 10.5654C48.3133 9.44036 48.2043 8.14614 47.535 7.11817C46.8658 6.0902 45.7252 5.4651 44.4971 5.45318H39.4331L39.637 4.23278C39.805 3.17993 39.5044 2.10631 38.8139 1.29293C38.1235 0.479546 37.1118 0.00737403 36.0438 0H25.7757C24.7075 0.00741972 23.6957 0.479724 23.0053 1.29327C22.3148 2.10683 22.0143 3.18062 22.1826 4.23356L22.3861 5.45303H17.3223C16.0941 5.46481 14.9535 6.08996 14.2844 7.11807C13.6153 8.14618 13.5067 9.44051 13.9951 10.5654L15.2852 13.4623C15.7053 14.3599 16.7681 14.7564 17.675 14.3538C18.5819 13.9513 18.9988 12.8979 18.6124 11.9854L17.3223 9.08846H22.9932L25.1182 21.8125H22.9877L21.6472 18.8019C21.2387 17.8847 20.1626 17.4719 19.2438 17.8797C18.325 18.2875 17.9114 19.3616 18.3199 20.2788L19.5711 23.0889C-9.88046 48.2705 -8.49975 85.6644 40.3041 79.2779C41.2798 79.1012 41.9346 78.1778 41.7772 77.2005C41.6197 76.2232 40.7079 75.5513 39.7259 75.6888ZM36.0447 3.63537L34.8799 10.6071C34.7353 11.587 35.4033 12.5022 36.3821 12.6651C37.3609 12.8281 38.2903 12.1789 38.4722 11.2052L38.8258 9.08846H44.4972L38.8318 21.8125H36.7014L37.2584 18.4761C37.4019 17.4967 36.734 16.5827 35.7559 16.4198C34.7778 16.257 33.8489 16.9051 33.6662 17.878L33.0091 21.8124H28.8104L25.7757 3.63537H36.0447ZM27.2232 70.8144C27.3186 69.8292 26.6067 68.9489 25.6217 68.8342C15.8392 67.8881 10.8785 64.2988 10.8784 58.1667C10.8636 57.1733 10.0526 56.3758 9.05733 56.3758C8.06203 56.3758 7.25109 57.1734 7.23635 58.1668C7.23635 63.8889 10.3654 71.0114 25.2715 72.4519C26.2602 72.5276 27.1278 71.7997 27.2232 70.8144ZM58.2251 79.9793C46.1564 79.9793 36.3728 70.2135 36.3728 58.1667C36.3728 46.12 46.1564 36.3542 58.2251 36.3542C59.2308 36.3541 60.0461 37.1679 60.0462 38.1718C60.0462 39.1757 59.2309 39.9895 58.2252 39.9896C34.0739 40.9842 34.0662 75.3451 58.2248 76.3438C78.2437 76.127 83.4455 48.653 64.8469 41.2287C63.9264 40.8528 63.4781 39.8093 63.8398 38.8846C64.2015 37.9598 65.2395 37.4956 66.1716 37.8417C88.5013 46.8541 82.3004 79.623 58.2251 79.9793ZM63.4895 50.6367C62.8244 51.365 61.6992 51.432 60.9522 50.7876H60.9522C60.6396 50.5467 60.2917 50.3552 59.9207 50.22V55.987C63.1058 56.6963 65.371 59.5173 65.371 62.7748C65.371 66.0323 63.1058 68.8533 59.9207 69.5627V70.8907C59.9017 71.8809 59.092 72.6738 58.0998 72.6738C57.1075 72.6738 56.2978 71.8811 56.2787 70.8908V69.7628C54.7179 69.6451 49.8474 68.3453 51.334 65.5955C52.2909 64.2368 53.4403 64.8581 54.5573 65.462C55.1515 65.7832 55.7366 66.0995 56.2787 66.11V58.4257C55.3035 58.0024 54.3817 57.466 53.5322 56.8275C49.9154 54.1168 51.8529 47.3332 56.2787 46.5997V45.4428C56.2978 44.4526 57.1074 43.6597 58.0997 43.6597C59.0919 43.6597 59.9016 44.4525 59.9207 45.4427V46.4666C61.2004 46.7135 62.3981 47.2752 63.4053 48.1009C64.1172 48.7837 64.1545 49.9083 63.4895 50.6367ZM61.7222 63.0962C61.5331 64.1833 60.8742 65.1323 59.9207 65.6905V59.8828C61.2356 60.3608 62.0019 61.7275 61.7222 63.0961L61.7222 63.0962ZM55.3074 52.1402C55.2136 52.7876 55.3838 53.4456 55.7799 53.9668H55.7798C55.8742 54.0406 55.9899 54.111 56.1057 54.1816C56.1643 54.2172 56.2229 54.2529 56.2787 54.289V50.5219C55.751 50.9098 55.4011 51.4927 55.3074 52.1402Z" fill="url(#paint0_linear_1_238)"/>
<path fill-rule="evenodd" clip-rule="evenodd" d="M39.7259 75.6888C27.3089 77.2505 4.07521 77.2801 3.5941 58.1671C3.59437 47.8089 11.6556 33.845 22.4244 25.4479H25.4467V32.7187C25.4467 33.7226 26.262 34.5364 27.2677 34.5364C28.2734 34.5364 29.0887 33.7226 29.0887 32.7187V25.4479H32.7308V36.3542C32.7287 37.0049 33.0753 37.6072 33.6396 37.9331C34.2039 38.2591 34.8997 38.2591 35.464 37.9331C36.0282 37.6072 36.3749 37.0049 36.3728 36.3542V25.4479H39.3942C42.5241 27.9277 45.3658 30.7497 47.8663 33.861C48.4983 34.6419 49.6448 34.7635 50.4271 34.1326C51.2094 33.5018 51.3312 32.3573 50.6992 31.5765C48.184 28.4647 45.3502 25.6235 42.2438 23.0993L47.8254 10.5654C48.3133 9.44036 48.2043 8.14614 47.535 7.11817C46.8658 6.0902 45.7252 5.4651 44.4971 5.45318H39.4331L39.637 4.23278C39.805 3.17993 39.5044 2.10631 38.8139 1.29293C38.1235 0.479546 37.1118 0.00737403 36.0438 0H25.7757C24.7075 0.00741972 23.6957 0.479724 23.0053 1.29327C22.3148 2.10683 22.0143 3.18062 22.1826 4.23356L22.3861 5.45303H17.3223C16.0941 5.46481 14.9535 6.08996 14.2844 7.11807C13.6153 8.14618 13.5067 9.44051 13.9951 10.5654L15.2852 13.4623C15.7053 14.3599 16.7681 14.7564 17.675 14.3538C18.5819 13.9513 18.9988 12.8979 18.6124 11.9854L17.3223 9.08846H22.9932L25.1182 21.8125H22.9877L21.6472 18.8019C21.2387 17.8847 20.1626 17.4719 19.2438 17.8797C18.325 18.2875 17.9114 19.3616 18.3199 20.2788L19.5711 23.0889C-9.88046 48.2705 -8.49975 85.6644 40.3041 79.2779C41.2798 79.1012 41.9346 78.1778 41.7772 77.2005C41.6197 76.2232 40.7079 75.5513 39.7259 75.6888ZM36.0447 3.63537L34.8799 10.6071C34.7353 11.587 35.4033 12.5022 36.3821 12.6651C37.3609 12.8281 38.2903 12.1789 38.4722 11.2052L38.8258 9.08846H44.4972L38.8318 21.8125H36.7014L37.2584 18.4761C37.4019 17.4967 36.734 16.5827 35.7559 16.4198C34.7778 16.257 33.8489 16.9051 33.6662 17.878L33.0091 21.8124H28.8104L25.7757 3.63537H36.0447ZM27.2232 70.8144C27.3186 69.8292 26.6067 68.9489 25.6217 68.8342C15.8392 67.8881 10.8785 64.2988 10.8784 58.1667C10.8636 57.1733 10.0526 56.3758 9.05733 56.3758C8.06203 56.3758 7.25109 57.1734 7.23635 58.1668C7.23635 63.8889 10.3654 71.0114 25.2715 72.4519C26.2602 72.5276 27.1278 71.7997 27.2232 70.8144ZM58.2251 79.9793C46.1564 79.9793 36.3728 70.2135 36.3728 58.1667C36.3728 46.12 46.1564 36.3542 58.2251 36.3542C59.2308 36.3541 60.0461 37.1679 60.0462 38.1718C60.0462 39.1757 59.2309 39.9895 58.2252 39.9896C34.0739 40.9842 34.0662 75.3451 58.2248 76.3438C78.2437 76.127 83.4455 48.653 64.8469 41.2287C63.9264 40.8528 63.4781 39.8093 63.8398 38.8846C64.2015 37.9598 65.2395 37.4956 66.1716 37.8417C88.5013 46.8541 82.3004 79.623 58.2251 79.9793ZM63.4895 50.6367C62.8244 51.365 61.6992 51.432 60.9522 50.7876H60.9522C60.6396 50.5467 60.2917 50.3552 59.9207 50.22V55.987C63.1058 56.6963 65.371 59.5173 65.371 62.7748C65.371 66.0323 63.1058 68.8533 59.9207 69.5627V70.8907C59.9017 71.8809 59.092 72.6738 58.0998 72.6738C57.1075 72.6738 56.2978 71.8811 56.2787 70.8908V69.7628C54.7179 69.6451 49.8474 68.3453 51.334 65.5955C52.2909 64.2368 53.4403 64.8581 54.5573 65.462C55.1515 65.7832 55.7366 66.0995 56.2787 66.11V58.4257C55.3035 58.0024 54.3817 57.466 53.5322 56.8275C49.9154 54.1168 51.8529 47.3332 56.2787 46.5997V45.4428C56.2978 44.4526 57.1074 43.6597 58.0997 43.6597C59.0919 43.6597 59.9016 44.4525 59.9207 45.4427V46.4666C61.2004 46.7135 62.3981 47.2752 63.4053 48.1009C64.1172 48.7837 64.1545 49.9083 63.4895 50.6367ZM61.7222 63.0962C61.5331 64.1833 60.8742 65.1323 59.9207 65.6905V59.8828C61.2356 60.3608 62.0019 61.7275 61.7222 63.0961L61.7222 63.0962ZM55.3074 52.1402C55.2136 52.7876 55.3838 53.4456 55.7799 53.9668H55.7798C55.8742 54.0406 55.9899 54.111 56.1057 54.1816C56.1643 54.2172 56.2229 54.2529 56.2787 54.289V50.5219C55.751 50.9098 55.4011 51.4927 55.3074 52.1402Z" fill="url(#paint1_linear_1_238)"/>
<defs>
<linearGradient id="paint0_linear_1_238" x1="-27.3652" y1="48.687" x2="35.7121" y2="111.65" gradientUnits="userSpaceOnUse">
<stop stop-color="#17EAD9"/>
<stop offset="1" stop-color="#6078EA"/>
</linearGradient>
<linearGradient id="paint1_linear_1_238" x1="97.1215" y1="94.5294" x2="126.18" y2="-19.7136" gradientUnits="userSpaceOnUse">
<stop stop-color="#FBA36A"/>
<stop offset="1" stop-color="#D75400"/>
</linearGradient>
</defs>
</svg>
