<svg width="80" height="54" viewBox="0 0 80 54" fill="none" xmlns="http://www.w3.org/2000/svg">
<path fill-rule="evenodd" clip-rule="evenodd" d="M76 51.3347V2.02722C76 1.29127 75.403 0.69458 74.6667 0.69458H61.3333C60.597 0.69458 60 1.29127 60 2.02722V51.3347H57.3333V20.6841C57.3333 19.9482 56.7363 19.3515 56 19.3515H42.6667C41.9303 19.3515 41.3333 19.9482 41.3333 20.6841V51.3347H38.6667V7.35775C38.6667 6.62181 38.0697 6.02512 37.3333 6.02512H24C23.2637 6.02512 22.6667 6.62181 22.6667 7.35775V51.3347H20V26.0146C20 25.2787 19.403 24.682 18.6667 24.682H5.33333C4.597 24.682 4 25.2787 4 26.0146V51.3347H0V54H80V51.3347H76ZM6.66667 51.3347V27.3473H17.3333V51.3347H6.66667ZM25.3333 8.69039V51.3347H36V8.69039H25.3333ZM44 51.3347V22.0167H54.6667V51.3347H44ZM62.6667 3.35985V51.3347H73.3333V3.35985H62.6667Z" fill="url(#paint0_linear_1_347)"/>
<defs>
<linearGradient id="paint0_linear_1_347" x1="97.1215" y1="63.6812" x2="110.474" y2="-15.1029" gradientUnits="userSpaceOnUse">
<stop stop-color="#FBA36A"/>
<stop offset="1" stop-color="#D75400"/>
</linearGradient>
</defs>
</svg>
