<svg width="80" height="69" viewBox="0 0 80 69" fill="none" xmlns="http://www.w3.org/2000/svg">
<path fill-rule="evenodd" clip-rule="evenodd" d="M3.88247 47.6584L11.6119 38.1474L19.3413 47.6584H15.6196C14.9292 47.6584 14.3696 48.22 14.3696 48.9128V66.4911H8.85391V48.9128C8.85445 48.5801 8.72303 48.2608 8.48866 48.0255C8.25429 47.7901 7.93623 47.658 7.60468 47.6584H3.88247ZM7.60421 69H15.6199C15.9515 69.0003 16.2696 68.8682 16.504 68.6329C16.7385 68.3975 16.8701 68.0783 16.8699 67.7455V50.1673H21.9749C22.4575 50.1656 22.8962 49.886 23.1029 49.4484C23.3097 49.0109 23.2477 48.4931 22.9437 48.117L12.5806 35.3685C12.3423 35.0778 11.987 34.9094 11.6119 34.9094C11.2368 34.9094 10.8814 35.0778 10.6431 35.3685L0.280108 48.117C-0.0239421 48.4931 -0.0858703 49.0109 0.120878 49.4484C0.327626 49.886 0.766326 50.1656 1.24886 50.1673H6.35389V67.7455C6.35364 68.0783 6.48526 68.3975 6.71974 68.6329C6.95421 68.8682 7.2723 69.0003 7.6039 69H7.60421ZM27.7753 23.0551C27.7753 24.6232 26.6434 25.9678 25.0771 26.4384V19.684C26.6434 20.1544 27.7753 21.4873 27.7753 23.0554V23.0551ZM19.8773 13.4214C19.8773 11.8533 21.0104 10.5204 22.5777 10.0379V16.8047C21.0104 16.323 19.8773 14.9898 19.8773 13.4214ZM27.7753 13.4214C27.7753 14.1142 28.3349 14.6759 29.0253 14.6759C29.7156 14.6759 30.2753 14.1142 30.2753 13.4214C30.2753 10.475 28.0359 8.01025 25.0765 7.46127V5.65797C25.0765 4.96514 24.5169 4.4035 23.8265 4.4035C23.1361 4.4035 22.5765 4.96514 22.5765 5.65797V7.46127C19.6147 8.01009 17.3766 10.475 17.3766 13.4214C17.3766 16.3678 19.6147 18.8326 22.5765 19.3815V26.4395C21.0091 25.9691 19.876 24.6246 19.876 23.0562C19.876 22.3634 19.3164 21.8017 18.626 21.8017C17.9356 21.8017 17.376 22.3634 17.376 23.0562C17.376 26.0026 19.6141 28.4673 22.5759 29.0163V30.8312C22.5759 31.5241 23.1355 32.0857 23.8259 32.0857C24.5162 32.0857 25.0759 31.5241 25.0759 30.8312V29.0163C28.0353 28.4675 30.2747 26.0026 30.2747 23.0562C30.2747 20.1098 28.0353 17.6562 25.0759 17.0961V10.0379C26.6421 10.5198 27.774 11.853 27.774 13.4214H27.7753ZM23.8279 33.979C30.172 33.98 35.8919 30.1455 38.3203 24.2636C40.7487 18.3818 39.4073 11.6111 34.9217 7.10884C30.436 2.6066 23.6895 1.25954 17.8283 3.69585C11.9671 6.13216 8.1455 11.872 8.14562 18.2387C8.15294 26.928 15.1695 33.9707 23.8279 33.9793V33.979ZM42.0075 18.2387C42.0103 25.6191 37.5824 32.2743 30.7888 35.1005C23.9952 37.9267 16.1741 36.3672 10.9731 31.1493C5.77214 25.9314 4.21569 18.0829 7.02966 11.2642C9.84363 4.44542 16.4738 -0.000443445 23.8279 3.31749e-08C33.8602 0.0139843 41.9904 8.17061 42.0075 18.2387ZM50.6591 19.4375C49.0592 19.4375 47.7623 18.1359 47.7623 16.5303C47.7623 14.9247 49.0592 13.6231 50.6591 13.6231H74.6057C76.2056 13.6231 77.5026 14.9247 77.5026 16.5303C77.5026 18.1359 76.2056 19.4375 74.6057 19.4375H50.6591ZM77.5002 24.8487C77.4977 26.4513 76.2026 27.7492 74.6057 27.7496H50.6591C49.0623 27.7496 47.7679 26.4505 47.7679 24.848C47.7679 23.2455 49.0623 21.9465 50.6591 21.9465H74.6057C76.2026 21.9469 77.4977 23.2448 77.5002 24.8474V24.8487ZM74.6057 30.26C76.2056 30.26 77.5026 31.5616 77.5026 33.1672C77.5026 34.7728 76.2056 36.0744 74.6057 36.0744H50.6591C49.0592 36.0744 47.7623 34.7728 47.7623 33.1672C47.7623 31.5616 49.0592 30.26 50.6591 30.26H74.6057ZM59.8667 44.3872C59.2823 41.9531 57.1148 40.236 54.6199 40.2308H48.0548C48.5429 39.232 49.5507 38.5949 50.6591 38.5843H74.6057C76.2025 38.5843 77.497 39.8834 77.497 41.4859C77.497 43.0884 76.2025 44.3875 74.6057 44.3875L59.8667 44.3872ZM77.5002 49.7983C77.5015 50.5699 77.1972 51.3103 76.6543 51.8566C76.1114 52.4029 75.3745 52.7103 74.6057 52.7112H59.8667C59.5942 51.5717 58.9637 50.5504 58.0682 49.7983C58.9654 49.0527 59.5966 48.0345 59.8667 46.8974H74.6057C76.2009 46.9018 77.4936 48.1974 77.5002 49.7983ZM77.5002 58.1223C77.4976 59.7249 76.2026 61.0228 74.6057 61.0233H59.8667C59.5939 59.8873 58.9632 58.8699 58.0682 58.1223C58.9631 57.3747 59.5938 56.3574 59.8667 55.2214H74.6057C76.2026 55.2218 77.4977 56.5197 77.5002 58.1223ZM54.6199 65.1914H30.6734C29.0735 65.1914 27.7765 63.8898 27.7765 62.2842C27.7765 60.6786 29.0735 59.377 30.6734 59.377H54.6199C56.2199 59.377 57.5168 60.6786 57.5168 62.2842C57.5168 63.8898 56.2199 65.1914 54.6199 65.1914ZM27.7798 53.9658C27.7802 52.3607 29.074 51.0582 30.6734 51.0528H54.6199C56.2199 51.0528 57.5168 52.3544 57.5168 53.96C57.5168 55.5656 56.2199 56.8672 54.6199 56.8672H30.6734C29.0765 56.8672 27.7815 55.5689 27.7798 53.9663V53.9658ZM27.7798 45.6418C27.7803 47.2468 29.0741 48.5492 30.6734 48.5547H54.6199C56.2199 48.5547 57.5168 47.2531 57.5168 45.6474C57.5168 44.0418 56.2199 42.7402 54.6199 42.7402H30.6734C29.0765 42.7403 27.7815 44.0386 27.7798 45.6412V45.6418ZM79.9998 16.5246C79.9943 13.5376 77.5821 11.1179 74.6057 11.1136H50.6591C48.3867 11.1144 46.3582 12.5439 45.586 14.6888C44.8138 16.8337 45.4635 19.2342 47.2107 20.6925C45.9781 21.7183 45.2649 23.2418 45.2649 24.8488C45.2649 26.4558 45.9781 27.9793 47.2107 29.0052C45.979 30.0312 45.2659 31.5539 45.2649 33.1603C45.2638 34.7667 45.9749 36.2903 47.2052 37.3179C46.3127 38.0714 45.6847 39.0924 45.4135 40.2308H30.6734C28.4021 40.2283 26.3731 41.6555 25.6005 43.799C24.8279 45.9425 25.4776 48.342 27.2249 49.7983C25.9922 50.8265 25.2792 52.3517 25.2792 53.9603C25.2792 55.5689 25.9922 57.0942 27.2249 58.1223C25.4777 59.5805 24.828 61.9811 25.6002 64.126C26.3724 66.2709 28.4009 67.7003 30.6734 67.701H54.6199C57.1183 67.6954 59.2874 65.9724 59.8667 63.5335H74.6057C76.877 63.5359 78.9059 62.1088 79.6784 59.9653C80.451 57.8218 79.8013 55.4223 78.054 53.966C79.2867 52.9378 79.9998 51.4126 79.9998 49.804C79.9998 48.1954 79.2867 46.6701 78.054 45.642C79.2866 44.6161 79.9998 43.0926 79.9998 41.4856C79.9998 39.8786 79.2866 38.3551 78.054 37.3292C79.2867 36.301 79.9998 34.7758 79.9998 33.1672C79.9998 31.5586 79.2867 30.0334 78.054 29.0052C79.2866 27.9793 79.9998 26.4558 79.9998 24.8488C79.9998 23.2418 79.2866 21.7183 78.054 20.6925C79.2883 19.663 80.0015 18.1353 79.9998 16.5246Z" fill="url(#paint0_linear_1_277)"/>
<path fill-rule="evenodd" clip-rule="evenodd" d="M3.88247 47.6584L11.6119 38.1474L19.3413 47.6584H15.6196C14.9292 47.6584 14.3696 48.22 14.3696 48.9128V66.4911H8.85391V48.9128C8.85445 48.5801 8.72303 48.2608 8.48866 48.0255C8.25429 47.7901 7.93623 47.658 7.60468 47.6584H3.88247ZM7.60421 69H15.6199C15.9515 69.0003 16.2696 68.8682 16.504 68.6329C16.7385 68.3975 16.8701 68.0783 16.8699 67.7455V50.1673H21.9749C22.4575 50.1656 22.8962 49.886 23.1029 49.4484C23.3097 49.0109 23.2477 48.4931 22.9437 48.117L12.5806 35.3685C12.3423 35.0778 11.987 34.9094 11.6119 34.9094C11.2368 34.9094 10.8814 35.0778 10.6431 35.3685L0.280108 48.117C-0.0239421 48.4931 -0.0858703 49.0109 0.120878 49.4484C0.327626 49.886 0.766326 50.1656 1.24886 50.1673H6.35389V67.7455C6.35364 68.0783 6.48526 68.3975 6.71974 68.6329C6.95421 68.8682 7.2723 69.0003 7.6039 69H7.60421ZM27.7753 23.0551C27.7753 24.6232 26.6434 25.9678 25.0771 26.4384V19.684C26.6434 20.1544 27.7753 21.4873 27.7753 23.0554V23.0551ZM19.8773 13.4214C19.8773 11.8533 21.0104 10.5204 22.5777 10.0379V16.8047C21.0104 16.323 19.8773 14.9898 19.8773 13.4214ZM27.7753 13.4214C27.7753 14.1142 28.3349 14.6759 29.0253 14.6759C29.7156 14.6759 30.2753 14.1142 30.2753 13.4214C30.2753 10.475 28.0359 8.01025 25.0765 7.46127V5.65797C25.0765 4.96514 24.5169 4.4035 23.8265 4.4035C23.1361 4.4035 22.5765 4.96514 22.5765 5.65797V7.46127C19.6147 8.01009 17.3766 10.475 17.3766 13.4214C17.3766 16.3678 19.6147 18.8326 22.5765 19.3815V26.4395C21.0091 25.9691 19.876 24.6246 19.876 23.0562C19.876 22.3634 19.3164 21.8017 18.626 21.8017C17.9356 21.8017 17.376 22.3634 17.376 23.0562C17.376 26.0026 19.6141 28.4673 22.5759 29.0163V30.8312C22.5759 31.5241 23.1355 32.0857 23.8259 32.0857C24.5162 32.0857 25.0759 31.5241 25.0759 30.8312V29.0163C28.0353 28.4675 30.2747 26.0026 30.2747 23.0562C30.2747 20.1098 28.0353 17.6562 25.0759 17.0961V10.0379C26.6421 10.5198 27.774 11.853 27.774 13.4214H27.7753ZM23.8279 33.979C30.172 33.98 35.8919 30.1455 38.3203 24.2636C40.7487 18.3818 39.4073 11.6111 34.9217 7.10884C30.436 2.6066 23.6895 1.25954 17.8283 3.69585C11.9671 6.13216 8.1455 11.872 8.14562 18.2387C8.15294 26.928 15.1695 33.9707 23.8279 33.9793V33.979ZM42.0075 18.2387C42.0103 25.6191 37.5824 32.2743 30.7888 35.1005C23.9952 37.9267 16.1741 36.3672 10.9731 31.1493C5.77214 25.9314 4.21569 18.0829 7.02966 11.2642C9.84363 4.44542 16.4738 -0.000443445 23.8279 3.31749e-08C33.8602 0.0139843 41.9904 8.17061 42.0075 18.2387ZM50.6591 19.4375C49.0592 19.4375 47.7623 18.1359 47.7623 16.5303C47.7623 14.9247 49.0592 13.6231 50.6591 13.6231H74.6057C76.2056 13.6231 77.5026 14.9247 77.5026 16.5303C77.5026 18.1359 76.2056 19.4375 74.6057 19.4375H50.6591ZM77.5002 24.8487C77.4977 26.4513 76.2026 27.7492 74.6057 27.7496H50.6591C49.0623 27.7496 47.7679 26.4505 47.7679 24.848C47.7679 23.2455 49.0623 21.9465 50.6591 21.9465H74.6057C76.2026 21.9469 77.4977 23.2448 77.5002 24.8474V24.8487ZM74.6057 30.26C76.2056 30.26 77.5026 31.5616 77.5026 33.1672C77.5026 34.7728 76.2056 36.0744 74.6057 36.0744H50.6591C49.0592 36.0744 47.7623 34.7728 47.7623 33.1672C47.7623 31.5616 49.0592 30.26 50.6591 30.26H74.6057ZM59.8667 44.3872C59.2823 41.9531 57.1148 40.236 54.6199 40.2308H48.0548C48.5429 39.232 49.5507 38.5949 50.6591 38.5843H74.6057C76.2025 38.5843 77.497 39.8834 77.497 41.4859C77.497 43.0884 76.2025 44.3875 74.6057 44.3875L59.8667 44.3872ZM77.5002 49.7983C77.5015 50.5699 77.1972 51.3103 76.6543 51.8566C76.1114 52.4029 75.3745 52.7103 74.6057 52.7112H59.8667C59.5942 51.5717 58.9637 50.5504 58.0682 49.7983C58.9654 49.0527 59.5966 48.0345 59.8667 46.8974H74.6057C76.2009 46.9018 77.4936 48.1974 77.5002 49.7983ZM77.5002 58.1223C77.4976 59.7249 76.2026 61.0228 74.6057 61.0233H59.8667C59.5939 59.8873 58.9632 58.8699 58.0682 58.1223C58.9631 57.3747 59.5938 56.3574 59.8667 55.2214H74.6057C76.2026 55.2218 77.4977 56.5197 77.5002 58.1223ZM54.6199 65.1914H30.6734C29.0735 65.1914 27.7765 63.8898 27.7765 62.2842C27.7765 60.6786 29.0735 59.377 30.6734 59.377H54.6199C56.2199 59.377 57.5168 60.6786 57.5168 62.2842C57.5168 63.8898 56.2199 65.1914 54.6199 65.1914ZM27.7798 53.9658C27.7802 52.3607 29.074 51.0582 30.6734 51.0528H54.6199C56.2199 51.0528 57.5168 52.3544 57.5168 53.96C57.5168 55.5656 56.2199 56.8672 54.6199 56.8672H30.6734C29.0765 56.8672 27.7815 55.5689 27.7798 53.9663V53.9658ZM27.7798 45.6418C27.7803 47.2468 29.0741 48.5492 30.6734 48.5547H54.6199C56.2199 48.5547 57.5168 47.2531 57.5168 45.6474C57.5168 44.0418 56.2199 42.7402 54.6199 42.7402H30.6734C29.0765 42.7403 27.7815 44.0386 27.7798 45.6412V45.6418ZM79.9998 16.5246C79.9943 13.5376 77.5821 11.1179 74.6057 11.1136H50.6591C48.3867 11.1144 46.3582 12.5439 45.586 14.6888C44.8138 16.8337 45.4635 19.2342 47.2107 20.6925C45.9781 21.7183 45.2649 23.2418 45.2649 24.8488C45.2649 26.4558 45.9781 27.9793 47.2107 29.0052C45.979 30.0312 45.2659 31.5539 45.2649 33.1603C45.2638 34.7667 45.9749 36.2903 47.2052 37.3179C46.3127 38.0714 45.6847 39.0924 45.4135 40.2308H30.6734C28.4021 40.2283 26.3731 41.6555 25.6005 43.799C24.8279 45.9425 25.4776 48.342 27.2249 49.7983C25.9922 50.8265 25.2792 52.3517 25.2792 53.9603C25.2792 55.5689 25.9922 57.0942 27.2249 58.1223C25.4777 59.5805 24.828 61.9811 25.6002 64.126C26.3724 66.2709 28.4009 67.7003 30.6734 67.701H54.6199C57.1183 67.6954 59.2874 65.9724 59.8667 63.5335H74.6057C76.877 63.5359 78.9059 62.1088 79.6784 59.9653C80.451 57.8218 79.8013 55.4223 78.054 53.966C79.2867 52.9378 79.9998 51.4126 79.9998 49.804C79.9998 48.1954 79.2867 46.6701 78.054 45.642C79.2866 44.6161 79.9998 43.0926 79.9998 41.4856C79.9998 39.8786 79.2866 38.3551 78.054 37.3292C79.2867 36.301 79.9998 34.7758 79.9998 33.1672C79.9998 31.5586 79.2867 30.0334 78.054 29.0052C79.2866 27.9793 79.9998 26.4558 79.9998 24.8488C79.9998 23.2418 79.2866 21.7183 78.054 20.6925C79.2883 19.663 80.0015 18.1353 79.9998 16.5246Z" fill="url(#paint1_linear_1_277)"/>
<defs>
<linearGradient id="paint0_linear_1_277" x1="80" y1="69.0005" x2="80" y2="0" gradientUnits="userSpaceOnUse">
<stop stop-color="#6C54A3"/>
<stop offset="1" stop-color="#00B1D2"/>
</linearGradient>
<linearGradient id="paint1_linear_1_277" x1="97.1215" y1="81.5316" x2="119.08" y2="-18.5606" gradientUnits="userSpaceOnUse">
<stop stop-color="#FBA36A"/>
<stop offset="1" stop-color="#D75400"/>
</linearGradient>
</defs>
</svg>
