<svg width="296" height="297" viewBox="0 0 296 297" fill="none" xmlns="http://www.w3.org/2000/svg">
<path fill-rule="evenodd" clip-rule="evenodd" d="M145.917 296.584L148.002 296.599V296.594C229.463 296.594 295.74 228.042 295.74 148.233C295.74 68.4243 233.589 3.31404 154.249 0L154.008 5.76376C230.264 8.95433 289.996 69.6047 289.996 148.233C289.996 226.861 226.295 290.831 147.998 290.831L145.996 290.816L145.917 296.584ZM41.3441 250.902C41.3449 250.902 41.3456 250.903 41.3464 250.904L41.3366 250.909L41.3441 250.902ZM41.3441 250.902L45.4826 246.913C20.0162 220.238 5.9993 185.201 5.9993 148.238C5.9993 108.83 22.4704 70.7999 51.1926 43.9123L47.2777 39.6944C17.3997 67.6736 0.259766 107.235 0.259766 148.238C0.259766 186.692 14.8463 223.15 41.3441 250.902Z" fill="#FF6400"/>
</svg>
