<svg width="95" height="80" viewBox="0 0 95 80" fill="none" xmlns="http://www.w3.org/2000/svg">
<path fill-rule="evenodd" clip-rule="evenodd" d="M91.2891 0H3.71094C1.66229 0.00204159 0.00204558 1.65905 0 3.7037V61.4815C0.00204558 63.5261 1.66229 65.1831 3.71094 65.1852H33.8734L32.8826 71.1111H28.2031C27.3833 71.1111 26.7188 71.7744 26.7188 72.5926V78.5185C26.7188 79.3367 27.3833 80 28.2031 80H66.7969C67.6167 80 68.2812 79.3367 68.2812 78.5185V72.5926C68.2812 71.7744 67.6167 71.1111 66.7969 71.1111H62.1174L61.1266 65.1852H91.2891C93.3377 65.1831 94.998 63.5261 95 61.4815V3.7037C94.998 1.65905 93.3377 0.00204159 91.2891 0ZM65.3125 74.0741V77.037H29.6875V74.0741H65.3125ZM36.883 65.1852L35.8922 71.1111H59.1078L58.117 65.1852H36.883ZM92.0312 61.4815C92.0312 61.8906 91.699 62.2222 91.2891 62.2222H3.71094C3.30104 62.2222 2.96875 61.8906 2.96875 61.4815V56.2963H92.0312V61.4815ZM2.96875 53.3333H92.0312V3.7037C92.0312 3.2946 91.699 2.96296 91.2891 2.96296H3.71094C3.30104 2.96296 2.96875 3.2946 2.96875 3.7037V53.3333Z" fill="url(#paint0_linear_1_300)"/>
<path fill-rule="evenodd" clip-rule="evenodd" d="M91.2891 0H3.71094C1.66229 0.00204159 0.00204558 1.65905 0 3.7037V61.4815C0.00204558 63.5261 1.66229 65.1831 3.71094 65.1852H33.8734L32.8826 71.1111H28.2031C27.3833 71.1111 26.7188 71.7744 26.7188 72.5926V78.5185C26.7188 79.3367 27.3833 80 28.2031 80H66.7969C67.6167 80 68.2812 79.3367 68.2812 78.5185V72.5926C68.2812 71.7744 67.6167 71.1111 66.7969 71.1111H62.1174L61.1266 65.1852H91.2891C93.3377 65.1831 94.998 63.5261 95 61.4815V3.7037C94.998 1.65905 93.3377 0.00204159 91.2891 0ZM65.3125 74.0741V77.037H29.6875V74.0741H65.3125ZM36.883 65.1852L35.8922 71.1111H59.1078L58.117 65.1852H36.883ZM92.0312 61.4815C92.0312 61.8906 91.699 62.2222 91.2891 62.2222H3.71094C3.30104 62.2222 2.96875 61.8906 2.96875 61.4815V56.2963H92.0312V61.4815ZM2.96875 53.3333H92.0312V3.7037C92.0312 3.2946 91.699 2.96296 91.2891 2.96296H3.71094C3.30104 2.96296 2.96875 3.2946 2.96875 3.7037V53.3333Z" fill="url(#paint1_linear_1_300)"/>
<defs>
<linearGradient id="paint0_linear_1_300" x1="-13.7305" y1="84.9325" x2="92.9842" y2="84.9325" gradientUnits="userSpaceOnUse">
<stop stop-color="#003F8A"/>
<stop offset="0.518" stop-color="#00D7DF"/>
<stop offset="1" stop-color="#006DF0"/>
</linearGradient>
<linearGradient id="paint1_linear_1_300" x1="115.332" y1="94.5294" x2="140.243" y2="-21.7691" gradientUnits="userSpaceOnUse">
<stop stop-color="#FBA36A"/>
<stop offset="1" stop-color="#D75400"/>
</linearGradient>
</defs>
</svg>
