<svg width="80" height="80" viewBox="0 0 80 80" fill="none" xmlns="http://www.w3.org/2000/svg">
<path fill-rule="evenodd" clip-rule="evenodd" d="M0 11.6129V68.3871C0 71.9445 2.89419 74.8387 6.45161 74.8387H51.1497C54.2039 78.0129 58.4839 80 63.2258 80C72.4748 80 80 72.4748 80 63.2258C80 55.3097 74.4826 48.6748 67.0968 46.92V11.6129C67.0968 9.47871 65.36 7.74194 63.2258 7.74194H54.1936V2.58065C54.1936 1.15742 53.0361 0 51.6129 0H46.4516C45.0284 0 43.871 1.15742 43.871 2.58065V7.74194H38.7097V2.58065C38.7097 1.15742 37.5523 0 36.129 0H30.9677C29.5445 0 28.3871 1.15742 28.3871 2.58065V7.74194H23.2258V2.58065C23.2258 1.15742 22.0684 0 20.6452 0H15.4839C14.0606 0 12.9032 1.15742 12.9032 2.58065V7.74194H3.87097C1.73677 7.74194 0 9.47871 0 11.6129ZM64.5161 54.1936V51.6129H61.9355V54.1936H59.3548C57.9316 54.1936 56.7742 55.351 56.7742 56.7742V61.9355C56.7742 63.3587 57.9316 64.5161 59.3548 64.5161H67.0968V69.6774H59.3548V67.0968H56.7742V69.6774C56.7742 71.1006 57.9316 72.2581 59.3548 72.2581H61.9355V74.8387H64.5161V72.2581H67.0968C68.52 72.2581 69.6774 71.1006 69.6774 69.6774V64.5161C69.6774 63.0929 68.52 61.9355 67.0968 61.9355H59.3548V56.7742H67.0968V59.3548H69.6774V56.7742C69.6774 55.351 68.52 54.1936 67.0968 54.1936H64.5161ZM63.2258 49.0323C55.4 49.0323 49.0323 55.4 49.0323 63.2258C49.0323 71.0516 55.4 77.4194 63.2258 77.4194C71.0516 77.4194 77.4194 71.0516 77.4194 63.2258C77.4194 55.4 71.0516 49.0323 63.2258 49.0323ZM48.9329 54.4903C47.369 57.0387 46.4516 60.0232 46.4516 63.2258C46.4516 64.56 46.6245 65.8516 46.92 67.0968H7.74194V30.9677H59.3548V46.92C55.8606 47.751 52.7897 49.6684 50.52 52.3058L48.0645 49.0323L51.6129 44.3006V41.2903H49.0323V43.4413L46.4516 46.8826L43.871 43.4413V41.2903H41.2903V44.3006L44.8387 49.0323L41.2903 53.7639V56.7742H43.871V54.6245L46.4516 51.1832L48.9329 54.4903ZM64.5161 46.5174V25.8065H2.58065V68.3871C2.58065 70.5213 4.31742 72.2581 6.45161 72.2581H49.1135C48.5884 71.4413 48.1239 70.5832 47.7458 69.6774H7.74194C6.31871 69.6774 5.16129 68.52 5.16129 67.0968V30.9677C5.16129 29.5445 6.31871 28.3871 7.74194 28.3871H59.3548C60.7781 28.3871 61.9355 29.5445 61.9355 30.9677V46.5174C62.3626 46.4839 62.7897 46.4516 63.2258 46.4516C63.6619 46.4516 64.089 46.4839 64.5161 46.5174ZM51.6142 15.4839H46.4516V2.58065H51.6129L51.6142 15.4839ZM30.9677 15.4839H36.1303L36.129 2.58065H30.9677V15.4839ZM20.6465 15.4839H15.4839V2.58065H20.6452L20.6465 15.4839ZM2.58065 11.6129V23.2258H64.5161V11.6129C64.5161 10.9019 63.9381 10.3226 63.2258 10.3226H54.1936V15.4839C54.1936 16.9071 53.0361 18.0645 51.6129 18.0645H46.4516C45.0284 18.0645 43.871 16.9071 43.871 15.4839V10.3226H38.7097V15.4839C38.7097 16.9071 37.5523 18.0645 36.129 18.0645H30.9677C29.5445 18.0645 28.3871 16.9071 28.3871 15.4839V10.3226H23.2258V15.4839C23.2258 16.9071 22.0684 18.0645 20.6452 18.0645H15.4839C14.0606 18.0645 12.9032 16.9071 12.9032 15.4839V10.3226H3.87097C3.15871 10.3226 2.58065 10.9019 2.58065 11.6129ZM38.7097 52.9032L35.8465 41.2903H31.2503L28.4258 52.5897L28.3871 56.7742H30.9677V54.1935H36.129V56.7742H38.7097V52.9032ZM33.2658 43.871L31.3303 51.6129H35.7665L33.831 43.871H33.2658ZM28.3871 41.2903V43.871H23.2258V56.7742H20.6452V43.871H15.4839V41.2903H28.3871Z" fill="url(#paint0_linear_1_328)"/>
<path fill-rule="evenodd" clip-rule="evenodd" d="M0 11.6129V68.3871C0 71.9445 2.89419 74.8387 6.45161 74.8387H51.1497C54.2039 78.0129 58.4839 80 63.2258 80C72.4748 80 80 72.4748 80 63.2258C80 55.3097 74.4826 48.6748 67.0968 46.92V11.6129C67.0968 9.47871 65.36 7.74194 63.2258 7.74194H54.1936V2.58065C54.1936 1.15742 53.0361 0 51.6129 0H46.4516C45.0284 0 43.871 1.15742 43.871 2.58065V7.74194H38.7097V2.58065C38.7097 1.15742 37.5523 0 36.129 0H30.9677C29.5445 0 28.3871 1.15742 28.3871 2.58065V7.74194H23.2258V2.58065C23.2258 1.15742 22.0684 0 20.6452 0H15.4839C14.0606 0 12.9032 1.15742 12.9032 2.58065V7.74194H3.87097C1.73677 7.74194 0 9.47871 0 11.6129ZM64.5161 54.1936V51.6129H61.9355V54.1936H59.3548C57.9316 54.1936 56.7742 55.351 56.7742 56.7742V61.9355C56.7742 63.3587 57.9316 64.5161 59.3548 64.5161H67.0968V69.6774H59.3548V67.0968H56.7742V69.6774C56.7742 71.1006 57.9316 72.2581 59.3548 72.2581H61.9355V74.8387H64.5161V72.2581H67.0968C68.52 72.2581 69.6774 71.1006 69.6774 69.6774V64.5161C69.6774 63.0929 68.52 61.9355 67.0968 61.9355H59.3548V56.7742H67.0968V59.3548H69.6774V56.7742C69.6774 55.351 68.52 54.1936 67.0968 54.1936H64.5161ZM63.2258 49.0323C55.4 49.0323 49.0323 55.4 49.0323 63.2258C49.0323 71.0516 55.4 77.4194 63.2258 77.4194C71.0516 77.4194 77.4194 71.0516 77.4194 63.2258C77.4194 55.4 71.0516 49.0323 63.2258 49.0323ZM48.9329 54.4903C47.369 57.0387 46.4516 60.0232 46.4516 63.2258C46.4516 64.56 46.6245 65.8516 46.92 67.0968H7.74194V30.9677H59.3548V46.92C55.8606 47.751 52.7897 49.6684 50.52 52.3058L48.0645 49.0323L51.6129 44.3006V41.2903H49.0323V43.4413L46.4516 46.8826L43.871 43.4413V41.2903H41.2903V44.3006L44.8387 49.0323L41.2903 53.7639V56.7742H43.871V54.6245L46.4516 51.1832L48.9329 54.4903ZM64.5161 46.5174V25.8065H2.58065V68.3871C2.58065 70.5213 4.31742 72.2581 6.45161 72.2581H49.1135C48.5884 71.4413 48.1239 70.5832 47.7458 69.6774H7.74194C6.31871 69.6774 5.16129 68.52 5.16129 67.0968V30.9677C5.16129 29.5445 6.31871 28.3871 7.74194 28.3871H59.3548C60.7781 28.3871 61.9355 29.5445 61.9355 30.9677V46.5174C62.3626 46.4839 62.7897 46.4516 63.2258 46.4516C63.6619 46.4516 64.089 46.4839 64.5161 46.5174ZM51.6142 15.4839H46.4516V2.58065H51.6129L51.6142 15.4839ZM30.9677 15.4839H36.1303L36.129 2.58065H30.9677V15.4839ZM20.6465 15.4839H15.4839V2.58065H20.6452L20.6465 15.4839ZM2.58065 11.6129V23.2258H64.5161V11.6129C64.5161 10.9019 63.9381 10.3226 63.2258 10.3226H54.1936V15.4839C54.1936 16.9071 53.0361 18.0645 51.6129 18.0645H46.4516C45.0284 18.0645 43.871 16.9071 43.871 15.4839V10.3226H38.7097V15.4839C38.7097 16.9071 37.5523 18.0645 36.129 18.0645H30.9677C29.5445 18.0645 28.3871 16.9071 28.3871 15.4839V10.3226H23.2258V15.4839C23.2258 16.9071 22.0684 18.0645 20.6452 18.0645H15.4839C14.0606 18.0645 12.9032 16.9071 12.9032 15.4839V10.3226H3.87097C3.15871 10.3226 2.58065 10.9019 2.58065 11.6129ZM38.7097 52.9032L35.8465 41.2903H31.2503L28.4258 52.5897L28.3871 56.7742H30.9677V54.1935H36.129V56.7742H38.7097V52.9032ZM33.2658 43.871L31.3303 51.6129H35.7665L33.831 43.871H33.2658ZM28.3871 41.2903V43.871H23.2258V56.7742H20.6452V43.871H15.4839V41.2903H28.3871Z" fill="url(#paint1_linear_1_328)"/>
<defs>
<linearGradient id="paint0_linear_1_328" x1="80" y1="80" x2="80" y2="0" gradientUnits="userSpaceOnUse">
<stop stop-color="#9F2FFF"/>
<stop offset="1" stop-color="#0BB1D3"/>
</linearGradient>
<linearGradient id="paint1_linear_1_328" x1="97.1215" y1="94.5294" x2="126.18" y2="-19.7136" gradientUnits="userSpaceOnUse">
<stop stop-color="#FBA36A"/>
<stop offset="1" stop-color="#D75400"/>
</linearGradient>
</defs>
</svg>
